<svg width="32" height="33" viewBox="0 0 32 33" fill="none" xmlns="http://www.w3.org/2000/svg">
<path d="M15.9741 0.108362C15.8342 0.113402 15.6994 0.164311 15.5887 0.253871L0.255755 12.7499C0.116243 12.8635 0.0256576 13.0304 0.00392552 13.2137C-0.0178066 13.3971 0.031095 13.582 0.139872 13.7277C0.24865 13.8734 0.408393 13.968 0.58396 13.9907C0.759526 14.0134 0.936535 13.9623 1.07605 13.8487L1.9992 13.0967V31.4022C1.99922 31.5869 2.06946 31.764 2.19448 31.8945C2.31949 32.0251 2.48905 32.0985 2.66585 32.0985H11.887C11.959 32.1109 12.0324 32.1109 12.1044 32.0985H19.8868C19.9588 32.1109 20.0322 32.1109 20.1042 32.0985H29.3319C29.5087 32.0985 29.6782 32.0251 29.8032 31.8945C29.9282 31.764 29.9985 31.5869 29.9985 31.4022V13.0967L30.9217 13.8487C30.9907 13.905 31.0697 13.9465 31.1542 13.9709C31.2386 13.9952 31.3268 14.002 31.4138 13.9907C31.5007 13.9795 31.5847 13.9505 31.6609 13.9054C31.7371 13.8602 31.804 13.7999 31.8579 13.7277C31.9117 13.6556 31.9515 13.573 31.9748 13.4849C31.9981 13.3967 32.0046 13.3046 31.9938 13.2138C31.983 13.123 31.9553 13.0353 31.9121 12.9557C31.8688 12.8761 31.811 12.8062 31.7419 12.7499L26.6653 8.61314V3.55161H22.6654V5.35211L16.409 0.253871C16.285 0.153414 16.131 0.101887 15.9741 0.108362ZM15.9989 1.6872L28.6652 12.0101V30.706H20.6654V17.4769H11.3323V30.706H3.3325V12.0101L15.9989 1.6872ZM23.9987 4.94414H25.332V7.52658L23.9987 6.43867V4.94414ZM12.6656 18.8695H19.3321V30.706H12.6656V18.8695Z"/>
</svg>
